# xmcd
#
# Track frame offsets:
#   150
#   13894
#   29837
#   42728
#   60050
#   77274
#   94458
#   112922
#   129129
#   142550
#   158130
#   181174
#
# Disc length: 2644 seconds
#
# Revision: 0
# Processed by: cddbd v1.5PL3 Copyright (c) Steve Scherf et al.
# Submitted via: Media_Universe 3.0
#
DISCID=8b0a520c
DTITLE=Travis Tritt - 36 All Time Greatest Hits
DYEAR=2002
DGENRE=Country
TTITLE0=T-R-O-U-B-L-E
TTITLE1=Ten Feet Tall And Bullet Proof
TTITLE2=Bible Belt
TTITLE3=Rough Around The Edges
TTITLE4=If I Lost You
TTITLE5=Anymore
TTITLE6=Homesick
TTITLE7=She's Going Home With Me
TTITLE8=Son Of The New South
TTITLE9=Where Corn Don't Grow
TTITLE10=Worth Every Mile
TTITLE11=Back Up Against The Wall
EXTD=
EXTT0=
EXTT1=
EXTT2=
EXTT3=
EXTT4=
EXTT5=
EXTT6=
EXTT7=
EXTT8=
EXTT9=
EXTT10=
EXTT11=
PLAYORDER=
